<?xml version="1.0" encoding="UTF-8"?>
<!-- Title: 1. auteurs.net (108) -->
<!-- Creator: Pajek: http://pajek.imfm.si/doku.php?id=history -->
<!-- CreationDate: 06-11-2015, 12:32:08 -->
<svg xml:space="preserve" viewBox="0 0 1374 746" xmlns="http://www.w3.org/2000/svg" xmlns:xlink="http://www.w3.org/1999/xlink" xmlns:inkscape="http://www.inkscape.org/namespaces/inkscape">
<title>1. auteurs.net (108)</title>
<g inkscape:groupmode="layer" id="PajekSig" inkscape:label="PajekSignature">
<g transform="translate(3 728)">
<g transform="scale(0.1)">
<g transform="matrix(1 0 0 -1 0 96)">
<path d="M   7.67  49.98 L  31.76  72.76 L  46.91  78.63
         L  57.23  80.49 M  72.86  65.23 L  65.73  83.25
         L  57.06  75.49 L  56.75  68.65 M  76.27  68.03
         L  75.65  84.50 L  93.92  91.02 L 107.24  74.87
         M  80.29  67.72 L  89.28  84.81 L 104.77  81.70
         L 116.23  73.31 L 121.18  59.33 M  56.75  81.08
         L  71.31  64.30"
         style="fill:none; stroke:black; stroke-width:5;"/>
<path d="M  86.18  70.21 L  91.45  73.00 L  95.78  69.58
         M  91.14  60.88 L  96.09  62.75 L  98.26  59.33"
         style="fill:none; stroke:black; stroke-width:1.5;"/>
<path d="M  81.07  49.08 L  87.81  49.08 L  93.30  54.38
         L  93.30  60.88 L  93.30  67.39 L  87.81  72.69
         L  81.07  72.69 L  74.33  72.69 L  68.83  67.39
         L  68.83  60.88 L  68.83  54.38 L  74.33  49.08
         L  81.07  49.08 z"
         style="fill:gray; stroke:black; stroke-width:1;"/>
<path d="M  54.63  37.53 L  68.53  43.56 L  75.39  55.85
         L  69.90  65.35 L  64.41  72.86 L  48.60  74.06
         L  34.71  68.04 L  20.81  55.02 L  15.95  40.72
         L  17.44  33.22 L  24.92  28.72 L  40.73  30.51
         L  54.63  37.53 z"
         style="fill:gray; stroke:black; stroke-width:1;" />
<path d="M  77.82  50.63 L 103.84  59.33 L 131.10  43.80
         L 139.46  27.95 L 139.15  15.83 M  35.99   5.27
         L  47.15  32.92 L  61.71  50.01 L  70.07  46.90
         L  82.77  45.04 L  83.39  27.02 L  65.42  12.11
         M  68.52  50.63 L  91.14  49.39 L 103.53  43.17
         L 117.16  22.67 L 115.30   8.38"
         style="fill:none; stroke:black; stroke-width:5;"/>
<path d="M  41.57  54.98 L  60.16  64.61 M  52.41  66.17
         L  57.99  57.47"
         style="fill:none; stroke:white; stroke-width:5;"/>
</g>
</g>
<animateMotion dur="20s" path="M3 0 L1356 0" begin="120s" fill="freeze"/>
</g>
<g transform="translate(3 728)">
<g transform="scale(0.1)">
<text x="5" y="140" style="font-family:Arial;font-size:55px;fill:red;">Pajek</text>
</g>
<animateMotion dur="0.1s" path="M3 0 L1356 0" begin="120s" fill="freeze"/>
</g>
</g>      <!-- Layer Signature -->

<g inkscape:groupmode="layer" id="PajekNet" inkscape:label="PajekNetwork">

<!-- Edge:     1    2 -->
<line x1="691.92" y1="360.72" x2="629.67" y2="422.02" style="stroke-width:2.00;stroke:rgb(0,0,255)"/>
<!-- Edge:     8    9 -->
<line x1="1173.84" y1="640.34" x2="1268.17" y2="707.57" style="stroke-width:2.00;stroke:rgb(0,0,255)"/>
<!-- Edge:    11   12 -->
<line x1="579.37" y1="499.82" x2="656.34" y2="644.16" style="stroke-width:2.00;stroke:rgb(0,0,255)"/>
<!-- Edge:    13   14 -->
<line x1="376.89" y1="91.68" x2="518.60" y2="126.63" style="stroke-width:2.00;stroke:rgb(0,0,255)"/>
<!-- Edge:    16   17 -->
<line x1="382.88" y1="609.35" x2="373.98" y2="549.00" style="stroke-width:2.00;stroke:rgb(0,0,255)"/>
<!-- Edge:    18   19 -->
<line x1="577.75" y1="312.05" x2="786.49" y2="412.40" style="stroke-width:2.00;stroke:rgb(0,0,255)"/>
<!-- Edge:    21   22 -->
<line x1="780.84" y1="170.52" x2="835.00" y2="91.29" style="stroke-width:2.00;stroke:rgb(0,0,255)"/>
<!-- Edge:     2   28 -->
<line x1="629.67" y1="422.02" x2="868.32" y2="299.53" style="stroke-width:2.00;stroke:rgb(0,0,255)"/>
<!-- Edge:    36   37 -->
<line x1="1133.22" y1="407.11" x2="1268.68" y2="448.74" style="stroke-width:2.00;stroke:rgb(0,0,255)"/>
<!-- Edge:    24   39 -->
<line x1="604.52" y1="281.35" x2="761.77" y2="368.77" style="stroke-width:2.00;stroke:rgb(0,0,255)"/>
<!-- Edge:    39   40 -->
<line x1="761.77" y1="368.77" x2="756.40" y2="296.27" style="stroke-width:2.00;stroke:rgb(0,0,255)"/>
<!-- Edge:    24   40 -->
<line x1="604.52" y1="281.35" x2="756.40" y2="296.27" style="stroke-width:2.00;stroke:rgb(0,0,255)"/>
<!-- Edge:    43   44 -->
<line x1="725.98" y1="531.55" x2="923.76" y2="406.55" style="stroke-width:2.00;stroke:rgb(0,0,255)"/>
<!-- Edge:    45   46 -->
<line x1="353.97" y1="153.85" x2="412.54" y2="232.15" style="stroke-width:2.00;stroke:rgb(0,0,255)"/>
<!-- Edge:     2   40 -->
<line x1="629.67" y1="422.02" x2="756.40" y2="296.27" style="stroke-width:2.00;stroke:rgb(0,0,255)"/>
<!-- Edge:     2   48 -->
<line x1="629.67" y1="422.02" x2="642.19" y2="316.66" style="stroke-width:2.00;stroke:rgb(0,0,255)"/>
<!-- Edge:    40   48 -->
<line x1="756.40" y1="296.27" x2="642.19" y2="316.66" style="stroke-width:2.00;stroke:rgb(0,0,255)"/>
<!-- Edge:    47   49 -->
<line x1="1058.42" y1="79.82" x2="934.05" y2="130.64" style="stroke-width:2.00;stroke:rgb(0,0,255)"/>
<!-- Edge:    50   51 -->
<line x1="383.24" y1="370.99" x2="380.18" y2="283.78" style="stroke-width:2.00;stroke:rgb(0,0,255)"/>
<!-- Edge:    50   52 -->
<line x1="383.24" y1="370.99" x2="469.51" y2="272.76" style="stroke-width:2.00;stroke:rgb(0,0,255)"/>
<!-- Edge:    51   52 -->
<line x1="380.18" y1="283.78" x2="469.51" y2="272.76" style="stroke-width:2.00;stroke:rgb(0,0,255)"/>
<!-- Edge:    40   53 -->
<line x1="756.40" y1="296.27" x2="793.75" y2="235.75" style="stroke-width:2.00;stroke:rgb(0,0,255)"/>
<!-- Edge:    55   56 -->
<line x1="1051.69" y1="428.21" x2="938.55" y2="456.71" style="stroke-width:2.00;stroke:rgb(0,0,255)"/>
<!-- Edge:    55   57 -->
<line x1="1051.69" y1="428.21" x2="775.52" y2="475.31" style="stroke-width:2.00;stroke:rgb(0,0,255)"/>
<!-- Edge:    55   58 -->
<line x1="1051.69" y1="428.21" x2="1045.31" y2="481.22" style="stroke-width:2.00;stroke:rgb(0,0,255)"/>
<!-- Edge:    56   57 -->
<line x1="938.55" y1="456.71" x2="775.52" y2="475.31" style="stroke-width:2.00;stroke:rgb(0,0,255)"/>
<!-- Edge:    56   58 -->
<line x1="938.55" y1="456.71" x2="1045.31" y2="481.22" style="stroke-width:2.00;stroke:rgb(0,0,255)"/>
<!-- Edge:    57   58 -->
<line x1="775.52" y1="475.31" x2="1045.31" y2="481.22" style="stroke-width:2.00;stroke:rgb(0,0,255)"/>
<!-- Edge:     2   59 -->
<line x1="629.67" y1="422.02" x2="453.29" y2="143.85" style="stroke-width:2.00;stroke:rgb(0,0,255)"/>
<!-- Edge:    40   62 -->
<line x1="756.40" y1="296.27" x2="824.53" y2="174.08" style="stroke-width:2.00;stroke:rgb(0,0,255)"/>
<!-- Edge:    63   64 -->
<line x1="306.11" y1="700.26" x2="410.22" y2="637.43" style="stroke-width:2.00;stroke:rgb(0,0,255)"/>
<!-- Edge:    67   68 -->
<line x1="604.26" y1="111.22" x2="710.63" y2="49.52" style="stroke-width:2.00;stroke:rgb(0,0,255)"/>
<!-- Edge:    24   69 -->
<line x1="604.52" y1="281.35" x2="376.52" y2="358.25" style="stroke-width:2.00;stroke:rgb(0,0,255)"/>
<!-- Edge:    43   70 -->
<line x1="725.98" y1="531.55" x2="668.02" y2="664.65" style="stroke-width:2.00;stroke:rgb(0,0,255)"/>
<!-- Edge:    55   71 -->
<line x1="1051.69" y1="428.21" x2="1002.74" y2="337.54" style="stroke-width:2.00;stroke:rgb(0,0,255)"/>
<!-- Edge:    72   73 -->
<line x1="983.20" y1="230.99" x2="1049.94" y2="154.64" style="stroke-width:2.00;stroke:rgb(0,0,255)"/>
<!-- Edge:    74   75 -->
<line x1="1262.12" y1="562.21" x2="1129.13" y2="518.29" style="stroke-width:2.00;stroke:rgb(0,0,255)"/>
<!-- Edge:    76   77 -->
<line x1="1217.87" y1="465.11" x2="1067.28" y2="486.49" style="stroke-width:2.00;stroke:rgb(0,0,255)"/>
<!-- Edge:    79   80 -->
<line x1="401.96" y1="38.03" x2="310.00" y2="106.22" style="stroke-width:2.00;stroke:rgb(0,0,255)"/>
<!-- Edge:    52   81 -->
<line x1="469.51" y1="272.76" x2="611.32" y2="199.21" style="stroke-width:2.00;stroke:rgb(0,0,255)"/>
<!-- Edge:    81   82 -->
<line x1="611.32" y1="199.21" x2="431.57" y2="174.44" style="stroke-width:2.00;stroke:rgb(0,0,255)"/>
<!-- Edge:    52   82 -->
<line x1="469.51" y1="272.76" x2="431.57" y2="174.44" style="stroke-width:2.00;stroke:rgb(0,0,255)"/>
<!-- Edge:    11   84 -->
<line x1="579.37" y1="499.82" x2="491.38" y2="625.21" style="stroke-width:2.00;stroke:rgb(0,0,255)"/>
<!-- Edge:    85   86 -->
<line x1="293.13" y1="402.93" x2="285.56" y2="363.45" style="stroke-width:2.00;stroke:rgb(0,0,255)"/>
<!-- Edge:    85   87 -->
<line x1="293.13" y1="402.93" x2="180.31" y2="429.62" style="stroke-width:2.00;stroke:rgb(0,0,255)"/>
<!-- Edge:    85   88 -->
<line x1="293.13" y1="402.93" x2="322.47" y2="354.06" style="stroke-width:2.00;stroke:rgb(0,0,255)"/>
<!-- Edge:    86   87 -->
<line x1="285.56" y1="363.45" x2="180.31" y2="429.62" style="stroke-width:2.00;stroke:rgb(0,0,255)"/>
<!-- Edge:    86   88 -->
<line x1="285.56" y1="363.45" x2="322.47" y2="354.06" style="stroke-width:2.00;stroke:rgb(0,0,255)"/>
<!-- Edge:    87   88 -->
<line x1="180.31" y1="429.62" x2="322.47" y2="354.06" style="stroke-width:2.00;stroke:rgb(0,0,255)"/>
<!-- Edge:    43   89 -->
<path d="M 725.98 531.55 C 723.58 520.73 692.48 461.09 684.99 452.93" style="stroke-width:2.00;stroke:rgb(0,0,255);fill:none"/> 
<!-- Edge:    71   83 -->
<line x1="1002.74" y1="337.54" x2="1226.05" y2="313.97" style="stroke-width:2.00;stroke:rgb(0,0,255)"/>
<!-- Edge:    43   89 -->
<path d="M 725.98 531.55 C 718.49 523.38 687.39 463.75 684.99 452.93" style="stroke-width:2.00;stroke:rgb(0,0,255);fill:none"/> 
<!-- Edge:    11   43 -->
<line x1="579.37" y1="499.82" x2="725.98" y2="531.55" style="stroke-width:2.00;stroke:rgb(0,0,255)"/>
<!-- Edge:    95   96 -->
<line x1="543.30" y1="244.63" x2="533.25" y2="347.42" style="stroke-width:2.00;stroke:rgb(0,0,255)"/>
<!-- Edge:     2   95 -->
<line x1="629.67" y1="422.02" x2="543.30" y2="244.63" style="stroke-width:2.00;stroke:rgb(0,0,255)"/>
<!-- Edge:     2   96 -->
<line x1="629.67" y1="422.02" x2="533.25" y2="347.42" style="stroke-width:2.00;stroke:rgb(0,0,255)"/>
<!-- Edge:    43   97 -->
<line x1="725.98" y1="531.55" x2="898.94" y2="567.05" style="stroke-width:2.00;stroke:rgb(0,0,255)"/>
<!-- Edge:    43   57 -->
<line x1="725.98" y1="531.55" x2="775.52" y2="475.31" style="stroke-width:2.00;stroke:rgb(0,0,255)"/>
<!-- Edge:    43   98 -->
<line x1="725.98" y1="531.55" x2="798.93" y2="538.72" style="stroke-width:2.00;stroke:rgb(0,0,255)"/>
<!-- Edge:    57   97 -->
<line x1="775.52" y1="475.31" x2="898.94" y2="567.05" style="stroke-width:2.00;stroke:rgb(0,0,255)"/>
<!-- Edge:    97   98 -->
<line x1="898.94" y1="567.05" x2="798.93" y2="538.72" style="stroke-width:2.00;stroke:rgb(0,0,255)"/>
<!-- Edge:    57   98 -->
<line x1="775.52" y1="475.31" x2="798.93" y2="538.72" style="stroke-width:2.00;stroke:rgb(0,0,255)"/>
<!-- Edge:    99  100 -->
<line x1="282.33" y1="268.45" x2="345.21" y2="233.34" style="stroke-width:2.00;stroke:rgb(0,0,255)"/>
<!-- Edge:    50  101 -->
<line x1="383.24" y1="370.99" x2="503.13" y2="455.56" style="stroke-width:2.00;stroke:rgb(0,0,255)"/>
<!-- Edge:    50  102 -->
<line x1="383.24" y1="370.99" x2="289.79" y2="429.52" style="stroke-width:2.00;stroke:rgb(0,0,255)"/>
<!-- Edge:    50  103 -->
<line x1="383.24" y1="370.99" x2="385.85" y2="470.70" style="stroke-width:2.00;stroke:rgb(0,0,255)"/>
<!-- Edge:   101  102 -->
<line x1="503.13" y1="455.56" x2="289.79" y2="429.52" style="stroke-width:2.00;stroke:rgb(0,0,255)"/>
<!-- Edge:   101  103 -->
<path d="M 503.13 455.56 C 489.46 461.19 400.50 472.67 385.85 470.70" style="stroke-width:2.00;stroke:rgb(0,0,255);fill:none"/> 
<!-- Edge:   102  103 -->
<line x1="289.79" y1="429.52" x2="385.85" y2="470.70" style="stroke-width:2.00;stroke:rgb(0,0,255)"/>
<!-- Edge:   106  107 -->
<line x1="792.17" y1="655.96" x2="694.53" y2="590.15" style="stroke-width:2.00;stroke:rgb(0,0,255)"/>
<!-- Edge:    87  108 -->
<line x1="180.31" y1="429.62" x2="143.21" y2="523.84" style="stroke-width:2.00;stroke:rgb(0,0,255)"/>
<!-- Edge:    11  101 -->
<line x1="579.37" y1="499.82" x2="503.13" y2="455.56" style="stroke-width:2.00;stroke:rgb(0,0,255)"/>
<!-- Edge:    11  103 -->
<line x1="579.37" y1="499.82" x2="385.85" y2="470.70" style="stroke-width:2.00;stroke:rgb(0,0,255)"/>
<!-- Edge:   101  103 -->
<path d="M 503.13 455.56 C 488.48 453.60 399.52 465.08 385.85 470.70" style="stroke-width:2.00;stroke:rgb(0,0,255);fill:none"/> 

<!-- Vertex:     1 -->
<ellipse cx="691.92" cy="360.72" rx="3.60" ry="3.60" style="fill:rgb(255,255,255);stroke:rgb(0,0,0);stroke-width:0.50;"/>
<text x="694.77" y="371.35" style="font-family:MS Sans Serif;font-size:15px;fill:rgb(0,0,0)">Muriel Foulonneau</text>
<!-- Vertex:     2 -->
<ellipse cx="629.67" cy="422.02" rx="12.47" ry="12.47" style="fill:rgb(255,255,255);stroke:rgb(0,0,0);stroke-width:0.50;"/>
<text x="632.51" y="432.65" style="font-family:MS Sans Serif;font-size:15px;fill:rgb(0,0,0)">Frédéric Clavert</text>
<!-- Vertex:     3 -->
<ellipse cx="959.93" cy="429.07" rx="3.60" ry="3.60" style="fill:rgb(255,255,255);stroke:rgb(0,0,0);stroke-width:0.50;"/>
<text x="962.78" y="439.70" style="font-family:MS Sans Serif;font-size:15px;fill:rgb(0,0,0)">Richard Walter</text>
<!-- Vertex:     4 -->
<ellipse cx="370.36" cy="151.35" rx="3.60" ry="3.60" style="fill:rgb(255,255,255);stroke:rgb(0,0,0);stroke-width:0.50;"/>
<text x="373.20" y="161.97" style="font-family:MS Sans Serif;font-size:15px;fill:rgb(0,0,0)">Marin Dacos</text>
<!-- Vertex:     5 -->
<ellipse cx="680.69" cy="266.38" rx="3.60" ry="3.60" style="fill:rgb(0,0,255);stroke:rgb(0,0,0);stroke-width:0.50;"/>
<text x="683.54" y="277.00" style="font-family:MS Sans Serif;font-size:15px;fill:rgb(0,0,0)">Besnard</text>
<!-- Vertex:     6 -->
<ellipse cx="487.44" cy="516.48" rx="3.60" ry="3.60" style="fill:rgb(0,0,255);stroke:rgb(0,0,0);stroke-width:0.50;"/>
<text x="490.29" y="527.10" style="font-family:MS Sans Serif;font-size:15px;fill:rgb(0,0,0)">Julien Velcin</text>
<!-- Vertex:     7 -->
<ellipse cx="1093.89" cy="622.01" rx="5.09" ry="5.09" style="fill:rgb(255,255,255);stroke:rgb(0,0,0);stroke-width:0.50;"/>
<text x="1096.73" y="632.63" style="font-family:MS Sans Serif;font-size:15px;fill:rgb(0,0,0)">Stéphane Pouyllau</text>
<!-- Vertex:     8 -->
<ellipse cx="1173.84" cy="640.34" rx="3.60" ry="3.60" style="fill:rgb(204,255,178);stroke:rgb(0,0,0);stroke-width:0.50;"/>
<text x="1176.69" y="650.97" style="font-family:MS Sans Serif;font-size:15px;fill:rgb(0,0,0)">Jean-Luc Pinol</text>
<!-- Vertex:     9 -->
<ellipse cx="1268.17" cy="707.57" rx="3.60" ry="3.60" style="fill:rgb(127,255,0);stroke:rgb(0,0,0);stroke-width:0.50;"/>
<text x="1271.02" y="718.19" style="font-family:MS Sans Serif;font-size:15px;fill:rgb(0,0,0)">Claire-Charlotte Butez</text>
<!-- Vertex:    10 -->
<ellipse cx="896.22" cy="506.21" rx="3.60" ry="3.60" style="fill:rgb(127,255,0);stroke:rgb(0,0,0);stroke-width:0.50;"/>
<text x="899.07" y="516.84" style="font-family:MS Sans Serif;font-size:15px;fill:rgb(0,0,0)">Damien Roussat</text>
<!-- Vertex:    11 -->
<ellipse cx="579.37" cy="499.82" rx="8.05" ry="8.05" style="fill:rgb(140,35,255);stroke:rgb(0,0,0);stroke-width:0.50;"/>
<text x="582.22" y="510.45" style="font-family:MS Sans Serif;font-size:15px;fill:rgb(0,0,0)">Francesco Beretta</text>
<!-- Vertex:    12 -->
<ellipse cx="656.34" cy="644.16" rx="3.60" ry="3.60" style="fill:rgb(255,132,255);stroke:rgb(0,0,0);stroke-width:0.50;"/>
<text x="659.19" y="654.79" style="font-family:MS Sans Serif;font-size:15px;fill:rgb(0,0,0)">Pierre Vernus</text>
<!-- Vertex:    13 -->
<ellipse cx="376.89" cy="91.68" rx="3.60" ry="3.60" style="fill:rgb(255,99,33);stroke:rgb(0,0,0);stroke-width:0.50;"/>
<text x="379.73" y="102.30" style="font-family:MS Sans Serif;font-size:15px;fill:rgb(0,0,0)">Sarah Faraud</text>
<!-- Vertex:    14 -->
<ellipse cx="518.60" cy="126.63" rx="3.60" ry="3.60" style="fill:rgb(30,249,163);stroke:rgb(0,0,0);stroke-width:0.50;"/>
<text x="521.45" y="137.26" style="font-family:MS Sans Serif;font-size:15px;fill:rgb(0,0,0)">Gautier Poupeau</text>
<!-- Vertex:    15 -->
<ellipse cx="407.19" cy="371.38" rx="3.60" ry="3.60" style="fill:rgb(0,255,255);stroke:rgb(0,0,0);stroke-width:0.50;"/>
<text x="410.04" y="382.01" style="font-family:MS Sans Serif;font-size:15px;fill:rgb(0,0,0)">Emmanuelle Morlock-Gerstenkorn</text>
<!-- Vertex:    16 -->
<ellipse cx="382.88" cy="609.35" rx="3.60" ry="3.60" style="fill:rgb(0,0,255);stroke:rgb(0,0,0);stroke-width:0.50;"/>
<text x="385.73" y="619.98" style="font-family:MS Sans Serif;font-size:15px;fill:rgb(0,0,0)">Stéphane Lamassé</text>
<!-- Vertex:    17 -->
<ellipse cx="373.98" cy="549.00" rx="3.60" ry="3.60" style="fill:rgb(0,0,255);stroke:rgb(0,0,0);stroke-width:0.50;"/>
<text x="376.83" y="559.63" style="font-family:MS Sans Serif;font-size:15px;fill:rgb(0,0,0)">Philippe Rygiel</text>
<!-- Vertex:    18 -->
<ellipse cx="577.75" cy="312.05" rx="3.60" ry="3.60" style="fill:rgb(127,255,0);stroke:rgb(0,0,0);stroke-width:0.50;"/>
<text x="580.60" y="322.67" style="font-family:MS Sans Serif;font-size:15px;fill:rgb(0,0,0)">Karim Hammou</text>
<!-- Vertex:    19 -->
<ellipse cx="786.49" cy="412.40" rx="3.60" ry="3.60" style="fill:rgb(127,255,0);stroke:rgb(0,0,0);stroke-width:0.50;"/>
<text x="789.33" y="423.02" style="font-family:MS Sans Serif;font-size:15px;fill:rgb(0,0,0)">Émilie Bremond</text>
<!-- Vertex:    20 -->
<ellipse cx="804.09" cy="693.05" rx="3.60" ry="3.60" style="fill:rgb(96,109,196);stroke:rgb(0,0,0);stroke-width:0.50;"/>
<text x="806.94" y="703.67" style="font-family:MS Sans Serif;font-size:15px;fill:rgb(0,0,0)">Mills Kelly</text>
<!-- Vertex:    21 -->
<ellipse cx="780.84" cy="170.52" rx="3.60" ry="3.60" style="fill:rgb(0,255,255);stroke:rgb(0,0,0);stroke-width:0.50;"/>
<text x="783.69" y="181.14" style="font-family:MS Sans Serif;font-size:15px;fill:rgb(0,0,0)">Jürgen Rolshoven</text>
<!-- Vertex:    22 -->
<ellipse cx="835.00" cy="91.29" rx="3.60" ry="3.60" style="fill:rgb(0,255,255);stroke:rgb(0,0,0);stroke-width:0.50;"/>
<text x="837.84" y="101.91" style="font-family:MS Sans Serif;font-size:15px;fill:rgb(0,0,0)">Florentin Lutz</text>
<!-- Vertex:    23 -->
<ellipse cx="127.03" cy="306.71" rx="5.09" ry="5.09" style="fill:rgb(0,255,255);stroke:rgb(0,0,0);stroke-width:0.50;"/>
<text x="129.88" y="317.34" style="font-family:MS Sans Serif;font-size:15px;fill:rgb(0,0,0)">Serge Noiret</text>
<!-- Vertex:    24 -->
<ellipse cx="604.52" cy="281.35" rx="8.05" ry="8.05" style="fill:rgb(255,0,0);stroke:rgb(0,0,0);stroke-width:0.50;"/>
<text x="607.37" y="291.97" style="font-family:MS Sans Serif;font-size:15px;fill:rgb(0,0,0)">Pierre Mounier</text>
<!-- Vertex:    25 -->
<ellipse cx="412.20" cy="279.25" rx="3.60" ry="3.60" style="fill:rgb(0,255,255);stroke:rgb(0,0,0);stroke-width:0.50;"/>
<text x="415.05" y="289.88" style="font-family:MS Sans Serif;font-size:15px;fill:rgb(0,0,0)">Terra</text>
<!-- Vertex:    26 -->
<ellipse cx="499.89" cy="597.73" rx="3.60" ry="3.60" style="fill:rgb(0,255,255);stroke:rgb(0,0,0);stroke-width:0.50;"/>
<text x="502.73" y="608.36" style="font-family:MS Sans Serif;font-size:15px;fill:rgb(0,0,0)">Stefan Keller</text>
<!-- Vertex:    27 -->
<ellipse cx="326.58" cy="76.11" rx="3.60" ry="3.60" style="fill:rgb(0,255,255);stroke:rgb(0,0,0);stroke-width:0.50;"/>
<text x="329.43" y="86.74" style="font-family:MS Sans Serif;font-size:15px;fill:rgb(0,0,0)">Pascal Hurni</text>
<!-- Vertex:    28 -->
<ellipse cx="868.32" cy="299.53" rx="3.60" ry="3.60" style="fill:rgb(173,0,0);stroke:rgb(0,0,0);stroke-width:0.50;"/>
<text x="871.17" y="310.16" style="font-family:MS Sans Serif;font-size:15px;fill:rgb(0,0,0)">Jean</text>
<!-- Vertex:    29 -->
<ellipse cx="330.38" cy="253.23" rx="3.60" ry="3.60" style="fill:rgb(0,255,255);stroke:rgb(0,0,0);stroke-width:0.50;"/>
<text x="333.23" y="263.85" style="font-family:MS Sans Serif;font-size:15px;fill:rgb(0,0,0)">Julia Schreiner</text>
<!-- Vertex:    30 -->
<ellipse cx="221.74" cy="207.49" rx="3.60" ry="3.60" style="fill:rgb(0,255,255);stroke:rgb(0,0,0);stroke-width:0.50;"/>
<text x="224.59" y="218.11" style="font-family:MS Sans Serif;font-size:15px;fill:rgb(0,0,0)">Seth van Hooland</text>
<!-- Vertex:    31 -->
<ellipse cx="631.77" cy="631.54" rx="3.60" ry="3.60" style="fill:rgb(0,255,255);stroke:rgb(0,0,0);stroke-width:0.50;"/>
<text x="634.62" y="642.16" style="font-family:MS Sans Serif;font-size:15px;fill:rgb(0,0,0)">Radu Suciu</text>
<!-- Vertex:    32 -->
<ellipse cx="692.61" cy="231.30" rx="5.09" ry="5.09" style="fill:rgb(0,255,255);stroke:rgb(0,0,0);stroke-width:0.50;"/>
<text x="695.46" y="241.93" style="font-family:MS Sans Serif;font-size:15px;fill:rgb(0,0,0)">Jan Baumann</text>
<!-- Vertex:    33 -->
<ellipse cx="117.79" cy="603.42" rx="3.60" ry="3.60" style="fill:rgb(0,255,255);stroke:rgb(0,0,0);stroke-width:0.50;"/>
<text x="120.63" y="614.05" style="font-family:MS Sans Serif;font-size:15px;fill:rgb(0,0,0)">Emre</text>
<!-- Vertex:    34 -->
<ellipse cx="1079.98" cy="47.23" rx="3.60" ry="3.60" style="fill:rgb(0,255,255);stroke:rgb(0,0,0);stroke-width:0.50;"/>
<text x="1082.83" y="57.85" style="font-family:MS Sans Serif;font-size:15px;fill:rgb(0,0,0)">Stefan A. Keller</text>
<!-- Vertex:    35 -->
<ellipse cx="1112.72" cy="199.27" rx="3.60" ry="3.60" style="fill:rgb(0,255,255);stroke:rgb(0,0,0);stroke-width:0.50;"/>
<text x="1115.56" y="209.89" style="font-family:MS Sans Serif;font-size:15px;fill:rgb(0,0,0)">Peter Haber</text>
<!-- Vertex:    36 -->
<ellipse cx="1133.22" cy="407.11" rx="3.60" ry="3.60" style="fill:rgb(0,255,255);stroke:rgb(0,0,0);stroke-width:0.50;"/>
<text x="1136.07" y="417.73" style="font-family:MS Sans Serif;font-size:15px;fill:rgb(0,0,0)">Marco Majoleth</text>
<!-- Vertex:    37 -->
<ellipse cx="1268.68" cy="448.74" rx="3.60" ry="3.60" style="fill:rgb(0,255,255);stroke:rgb(0,0,0);stroke-width:0.50;"/>
<text x="1271.53" y="459.37" style="font-family:MS Sans Serif;font-size:15px;fill:rgb(0,0,0)">Enrico Natale</text>
<!-- Vertex:    38 -->
<ellipse cx="1183.38" cy="238.59" rx="3.60" ry="3.60" style="fill:rgb(0,255,255);stroke:rgb(0,0,0);stroke-width:0.50;"/>
<text x="1186.23" y="249.21" style="font-family:MS Sans Serif;font-size:15px;fill:rgb(0,0,0)">Alexandre Garcia</text>
<!-- Vertex:    39 -->
<ellipse cx="761.77" cy="368.77" rx="3.60" ry="3.60" style="fill:rgb(140,35,255);stroke:rgb(0,0,0);stroke-width:0.50;"/>
<text x="764.62" y="379.39" style="font-family:MS Sans Serif;font-size:15px;fill:rgb(0,0,0)">Mareike König</text>
<!-- Vertex:    40 -->
<ellipse cx="756.40" cy="296.27" rx="10.18" ry="10.18" style="fill:rgb(0,0,255);stroke:rgb(0,0,0);stroke-width:0.50;"/>
<text x="759.25" y="306.89" style="font-family:MS Sans Serif;font-size:15px;fill:rgb(0,0,0)">Aurélien Berra</text>
<!-- Vertex:    41 -->
<ellipse cx="1098.19" cy="441.03" rx="3.60" ry="3.60" style="fill:rgb(0,255,255);stroke:rgb(0,0,0);stroke-width:0.50;"/>
<text x="1101.04" y="451.65" style="font-family:MS Sans Serif;font-size:15px;fill:rgb(0,0,0)">René Schneider</text>
<!-- Vertex:    42 -->
<ellipse cx="228.19" cy="634.85" rx="3.60" ry="3.60" style="fill:rgb(0,255,255);stroke:rgb(0,0,0);stroke-width:0.50;"/>
<text x="231.04" y="645.47" style="font-family:MS Sans Serif;font-size:15px;fill:rgb(0,0,0)">Patrick Kammerer</text>
<!-- Vertex:    43 -->
<ellipse cx="725.98" cy="531.55" rx="10.18" ry="10.18" style="fill:rgb(255,255,255);stroke:rgb(0,0,0);stroke-width:0.50;"/>
<text x="728.83" y="542.17" style="font-family:MS Sans Serif;font-size:15px;fill:rgb(0,0,0)">Paul Girard</text>
<!-- Vertex:    44 -->
<ellipse cx="923.76" cy="406.55" rx="3.60" ry="3.60" style="fill:rgb(0,0,255);stroke:rgb(0,0,0);stroke-width:0.50;"/>
<text x="926.61" y="417.18" style="font-family:MS Sans Serif;font-size:15px;fill:rgb(0,0,0)">Tommaso Venturini</text>
<!-- Vertex:    45 -->
<ellipse cx="353.97" cy="153.85" rx="3.60" ry="3.60" style="fill:rgb(255,255,255);stroke:rgb(0,0,0);stroke-width:0.50;"/>
<text x="356.82" y="164.47" style="font-family:MS Sans Serif;font-size:15px;fill:rgb(0,0,0)">Serge Heiden</text>
<!-- Vertex:    46 -->
<ellipse cx="412.54" cy="232.15" rx="3.60" ry="3.60" style="fill:rgb(255,255,255);stroke:rgb(0,0,0);stroke-width:0.50;"/>
<text x="415.38" y="242.78" style="font-family:MS Sans Serif;font-size:15px;fill:rgb(0,0,0)">Alexis Lavrentiev</text>
<!-- Vertex:    47 -->
<ellipse cx="1058.42" cy="79.82" rx="5.09" ry="5.09" style="fill:rgb(229,229,229);stroke:rgb(0,0,0);stroke-width:0.50;"/>
<text x="1061.26" y="90.45" style="font-family:MS Sans Serif;font-size:15px;fill:rgb(0,0,0)">Lars Wieneke</text>
<!-- Vertex:    48 -->
<ellipse cx="642.19" cy="316.66" rx="3.60" ry="3.60" style="fill:rgb(204,255,255);stroke:rgb(0,0,0);stroke-width:0.50;"/>
<text x="645.03" y="327.28" style="font-family:MS Sans Serif;font-size:15px;fill:rgb(0,0,0)">Franziska Heimburger</text>
<!-- Vertex:    49 -->
<ellipse cx="934.05" cy="130.64" rx="3.60" ry="3.60" style="fill:rgb(255,99,33);stroke:rgb(0,0,0);stroke-width:0.50;"/>
<text x="936.90" y="141.27" style="font-family:MS Sans Serif;font-size:15px;fill:rgb(0,0,0)">Isabelle Jouve</text>
<!-- Vertex:    50 -->
<ellipse cx="383.24" cy="370.99" rx="6.24" ry="6.24" style="fill:rgb(204,255,178);stroke:rgb(0,0,0);stroke-width:0.50;"/>
<text x="386.09" y="381.61" style="font-family:MS Sans Serif;font-size:15px;fill:rgb(0,0,0)">Nicolas Thély</text>
<!-- Vertex:    51 -->
<ellipse cx="380.18" cy="283.78" rx="3.60" ry="3.60" style="fill:rgb(204,255,178);stroke:rgb(0,0,0);stroke-width:0.50;"/>
<text x="383.03" y="294.41" style="font-family:MS Sans Serif;font-size:15px;fill:rgb(0,0,0)">David-Olivier Lartigaud</text>
<!-- Vertex:    52 -->
<ellipse cx="469.51" cy="272.76" rx="5.09" ry="5.09" style="fill:rgb(204,255,178);stroke:rgb(0,0,0);stroke-width:0.50;"/>
<text x="472.36" y="283.39" style="font-family:MS Sans Serif;font-size:15px;fill:rgb(0,0,0)">Gilles Rouffineau</text>
<!-- Vertex:    53 -->
<ellipse cx="793.75" cy="235.75" rx="5.09" ry="5.09" style="fill:rgb(255,0,0);stroke:rgb(0,0,0);stroke-width:0.50;"/>
<text x="796.59" y="246.37" style="font-family:MS Sans Serif;font-size:15px;fill:rgb(0,0,0)">Florence Clavaud</text>
<!-- Vertex:    54 -->
<ellipse cx="1283.12" cy="537.81" rx="3.60" ry="3.60" style="fill:rgb(0,255,255);stroke:rgb(0,0,0);stroke-width:0.50;"/>
<text x="1285.97" y="548.44" style="font-family:MS Sans Serif;font-size:15px;fill:rgb(0,0,0)">Cécile Armand</text>
<!-- Vertex:    55 -->
<ellipse cx="1051.69" cy="428.21" rx="5.09" ry="5.09" style="fill:rgb(30,249,163);stroke:rgb(0,0,0);stroke-width:0.50;"/>
<text x="1054.54" y="438.83" style="font-family:MS Sans Serif;font-size:15px;fill:rgb(0,0,0)">Elifsu Sabuncu</text>
<!-- Vertex:    56 -->
<ellipse cx="938.55" cy="456.71" rx="3.60" ry="3.60" style="fill:rgb(255,216,242);stroke:rgb(0,0,0);stroke-width:0.50;"/>
<text x="941.40" y="467.33" style="font-family:MS Sans Serif;font-size:15px;fill:rgb(0,0,0)">Antoine Blanchard</text>
<!-- Vertex:    57 -->
<ellipse cx="775.52" cy="475.31" rx="5.09" ry="5.09" style="fill:rgb(255,255,255);stroke:rgb(0,0,0);stroke-width:0.50;"/>
<text x="778.36" y="485.93" style="font-family:MS Sans Serif;font-size:15px;fill:rgb(0,0,0)">Cynthia Pedroja</text>
<!-- Vertex:    58 -->
<ellipse cx="1045.31" cy="481.22" rx="3.60" ry="3.60" style="fill:rgb(204,204,255);stroke:rgb(0,0,0);stroke-width:0.50;"/>
<text x="1048.15" y="491.85" style="font-family:MS Sans Serif;font-size:15px;fill:rgb(0,0,0)">Anne-Laure Stérin</text>
<!-- Vertex:    59 -->
<ellipse cx="453.29" cy="143.85" rx="3.60" ry="3.60" style="fill:rgb(0,255,255);stroke:rgb(0,0,0);stroke-width:0.50;"/>
<text x="456.14" y="154.48" style="font-family:MS Sans Serif;font-size:15px;fill:rgb(0,0,0)">Clément Oury</text>
<!-- Vertex:    60 -->
<ellipse cx="715.83" cy="239.71" rx="3.60" ry="3.60" style="fill:rgb(0,255,255);stroke:rgb(0,0,0);stroke-width:0.50;"/>
<text x="718.68" y="250.34" style="font-family:MS Sans Serif;font-size:15px;fill:rgb(0,0,0)">Paul-Henri Giraud</text>
<!-- Vertex:    61 -->
<ellipse cx="1063.76" cy="353.65" rx="3.60" ry="3.60" style="fill:rgb(0,255,255);stroke:rgb(0,0,0);stroke-width:0.50;"/>
<text x="1066.61" y="364.28" style="font-family:MS Sans Serif;font-size:15px;fill:rgb(0,0,0)">Nicolas De Lavergne</text>
<!-- Vertex:    62 -->
<ellipse cx="824.53" cy="174.08" rx="7.20" ry="7.20" style="fill:rgb(0,0,255);stroke:rgb(0,0,0);stroke-width:0.50;"/>
<text x="827.38" y="184.70" style="font-family:MS Sans Serif;font-size:15px;fill:rgb(0,0,0)">Olivier Le Deuff</text>
<!-- Vertex:    63 -->
<ellipse cx="306.11" cy="700.26" rx="3.60" ry="3.60" style="fill:rgb(0,255,255);stroke:rgb(0,0,0);stroke-width:0.50;"/>
<text x="308.95" y="710.88" style="font-family:MS Sans Serif;font-size:15px;fill:rgb(0,0,0)">Marion Colas</text>
<!-- Vertex:    64 -->
<ellipse cx="410.22" cy="637.43" rx="3.60" ry="3.60" style="fill:rgb(0,255,255);stroke:rgb(0,0,0);stroke-width:0.50;"/>
<text x="413.06" y="648.06" style="font-family:MS Sans Serif;font-size:15px;fill:rgb(0,0,0)">Maria Vlachou</text>
<!-- Vertex:    65 -->
<ellipse cx="166.81" cy="305.01" rx="3.60" ry="3.60" style="fill:rgb(0,255,255);stroke:rgb(0,0,0);stroke-width:0.50;"/>
<text x="169.66" y="315.64" style="font-family:MS Sans Serif;font-size:15px;fill:rgb(0,0,0)">Sylvain Machefert</text>
<!-- Vertex:    66 -->
<ellipse cx="721.45" cy="244.91" rx="3.60" ry="3.60" style="fill:rgb(0,255,255);stroke:rgb(0,0,0);stroke-width:0.50;"/>
<text x="724.30" y="255.53" style="font-family:MS Sans Serif;font-size:15px;fill:rgb(0,0,0)">Robin de Mourat</text>
<!-- Vertex:    67 -->
<ellipse cx="604.26" cy="111.22" rx="3.60" ry="3.60" style="fill:rgb(204,255,178);stroke:rgb(0,0,0);stroke-width:0.50;"/>
<text x="607.11" y="121.84" style="font-family:MS Sans Serif;font-size:15px;fill:rgb(0,0,0)">Thomas Meghe</text>
<!-- Vertex:    68 -->
<ellipse cx="710.63" cy="49.52" rx="3.60" ry="3.60" style="fill:rgb(204,255,178);stroke:rgb(0,0,0);stroke-width:0.50;"/>
<text x="713.48" y="60.14" style="font-family:MS Sans Serif;font-size:15px;fill:rgb(0,0,0)">Erwan Mahé</text>
<!-- Vertex:    69 -->
<ellipse cx="376.52" cy="358.25" rx="3.60" ry="3.60" style="fill:rgb(0,255,255);stroke:rgb(0,0,0);stroke-width:0.50;"/>
<text x="379.37" y="368.87" style="font-family:MS Sans Serif;font-size:15px;fill:rgb(0,0,0)">Alexandre Serres</text>
<!-- Vertex:    70 -->
<ellipse cx="668.02" cy="664.65" rx="3.60" ry="3.60" style="fill:rgb(0,153,0);stroke:rgb(0,0,0);stroke-width:0.50;"/>
<text x="670.87" y="675.28" style="font-family:MS Sans Serif;font-size:15px;fill:rgb(0,0,0)">Christophe Leclercq</text>
<!-- Vertex:    71 -->
<ellipse cx="1002.74" cy="337.54" rx="5.09" ry="5.09" style="fill:rgb(0,153,0);stroke:rgb(0,0,0);stroke-width:0.50;"/>
<text x="1005.59" y="348.16" style="font-family:MS Sans Serif;font-size:15px;fill:rgb(0,0,0)">Martin Grandjean</text>
<!-- Vertex:    72 -->
<ellipse cx="983.20" cy="230.99" rx="3.60" ry="3.60" style="fill:rgb(0,255,255);stroke:rgb(0,0,0);stroke-width:0.50;"/>
<text x="986.04" y="241.62" style="font-family:MS Sans Serif;font-size:15px;fill:rgb(0,0,0)">Damien Baïs</text>
<!-- Vertex:    73 -->
<ellipse cx="1049.94" cy="154.64" rx="3.60" ry="3.60" style="fill:rgb(0,255,255);stroke:rgb(0,0,0);stroke-width:0.50;"/>
<text x="1052.79" y="165.27" style="font-family:MS Sans Serif;font-size:15px;fill:rgb(0,0,0)">Johann Aussage</text>
<!-- Vertex:    74 -->
<ellipse cx="1262.12" cy="562.21" rx="3.60" ry="3.60" style="fill:rgb(0,255,255);stroke:rgb(0,0,0);stroke-width:0.50;"/>
<text x="1264.97" y="572.83" style="font-family:MS Sans Serif;font-size:15px;fill:rgb(0,0,0)">Virginie Pringuet</text>
<!-- Vertex:    75 -->
<ellipse cx="1129.13" cy="518.29" rx="3.60" ry="3.60" style="fill:rgb(0,255,255);stroke:rgb(0,0,0);stroke-width:0.50;"/>
<text x="1131.98" y="528.92" style="font-family:MS Sans Serif;font-size:15px;fill:rgb(0,0,0)">Antoine Courtin</text>
<!-- Vertex:    76 -->
<ellipse cx="1217.87" cy="465.11" rx="3.60" ry="3.60" style="fill:rgb(0,255,255);stroke:rgb(0,0,0);stroke-width:0.50;"/>
<text x="1220.72" y="475.74" style="font-family:MS Sans Serif;font-size:15px;fill:rgb(0,0,0)">Camille Bosqué</text>
<!-- Vertex:    77 -->
<ellipse cx="1067.28" cy="486.49" rx="3.60" ry="3.60" style="fill:rgb(0,255,255);stroke:rgb(0,0,0);stroke-width:0.50;"/>
<text x="1070.13" y="497.12" style="font-family:MS Sans Serif;font-size:15px;fill:rgb(0,0,0)">Alexandre Dupont</text>
<!-- Vertex:    78 -->
<ellipse cx="409.52" cy="278.22" rx="3.60" ry="3.60" style="fill:rgb(0,255,255);stroke:rgb(0,0,0);stroke-width:0.50;"/>
<text x="412.37" y="288.85" style="font-family:MS Sans Serif;font-size:15px;fill:rgb(0,0,0)">Alexis Chazard</text>
<!-- Vertex:    79 -->
<ellipse cx="401.96" cy="38.03" rx="3.60" ry="3.60" style="fill:rgb(0,255,255);stroke:rgb(0,0,0);stroke-width:0.50;"/>
<text x="404.80" y="48.66" style="font-family:MS Sans Serif;font-size:15px;fill:rgb(0,0,0)">Aurélie Hess</text>
<!-- Vertex:    80 -->
<ellipse cx="310.00" cy="106.22" rx="3.60" ry="3.60" style="fill:rgb(0,255,255);stroke:rgb(0,0,0);stroke-width:0.50;"/>
<text x="312.85" y="116.84" style="font-family:MS Sans Serif;font-size:15px;fill:rgb(0,0,0)">Martine Cocaud</text>
<!-- Vertex:    81 -->
<ellipse cx="611.32" cy="199.21" rx="3.60" ry="3.60" style="fill:rgb(255,99,33);stroke:rgb(0,0,0);stroke-width:0.50;"/>
<text x="614.17" y="209.83" style="font-family:MS Sans Serif;font-size:15px;fill:rgb(0,0,0)">Pierre Braun</text>
<!-- Vertex:    82 -->
<ellipse cx="431.57" cy="174.44" rx="3.60" ry="3.60" style="fill:rgb(255,255,255);stroke:rgb(0,0,0);stroke-width:0.50;"/>
<text x="434.42" y="185.07" style="font-family:MS Sans Serif;font-size:15px;fill:rgb(0,0,0)">Nicolas Larrousse</text>
<!-- Vertex:    83 -->
<ellipse cx="1226.05" cy="313.97" rx="6.24" ry="6.24" style="fill:rgb(127,255,0);stroke:rgb(0,0,0);stroke-width:0.50;"/>
<text x="1228.90" y="324.60" style="font-family:MS Sans Serif;font-size:15px;fill:rgb(0,0,0)">Johann Holland</text>
<!-- Vertex:    84 -->
<ellipse cx="491.38" cy="625.21" rx="3.60" ry="3.60" style="fill:rgb(0,255,255);stroke:rgb(0,0,0);stroke-width:0.50;"/>
<text x="494.22" y="635.84" style="font-family:MS Sans Serif;font-size:15px;fill:rgb(0,0,0)">Charlotte Butez</text>
<!-- Vertex:    85 -->
<ellipse cx="293.13" cy="402.93" rx="3.60" ry="3.60" style="fill:rgb(0,255,255);stroke:rgb(0,0,0);stroke-width:0.50;"/>
<text x="295.98" y="413.55" style="font-family:MS Sans Serif;font-size:15px;fill:rgb(0,0,0)">Vincent Auzas</text>
<!-- Vertex:    86 -->
<ellipse cx="285.56" cy="363.45" rx="3.60" ry="3.60" style="fill:rgb(0,255,255);stroke:rgb(0,0,0);stroke-width:0.50;"/>
<text x="288.41" y="374.08" style="font-family:MS Sans Serif;font-size:15px;fill:rgb(0,0,0)">Rémy Besson</text>
<!-- Vertex:    87 -->
<ellipse cx="180.31" cy="429.62" rx="5.09" ry="5.09" style="fill:rgb(0,255,255);stroke:rgb(0,0,0);stroke-width:0.50;"/>
<text x="183.16" y="440.24" style="font-family:MS Sans Serif;font-size:15px;fill:rgb(0,0,0)">Michaël Bourgatte</text>
<!-- Vertex:    88 -->
<ellipse cx="322.47" cy="354.06" rx="3.60" ry="3.60" style="fill:rgb(0,255,255);stroke:rgb(0,0,0);stroke-width:0.50;"/>
<text x="325.32" y="364.68" style="font-family:MS Sans Serif;font-size:15px;fill:rgb(0,0,0)">Valérie Hugonnard</text>
<!-- Vertex:    89 -->
<ellipse cx="684.99" cy="452.93" rx="6.24" ry="6.24" style="fill:rgb(255,255,255);stroke:rgb(0,0,0);stroke-width:0.50;"/>
<text x="687.84" y="463.55" style="font-family:MS Sans Serif;font-size:15px;fill:rgb(0,0,0)">Mathieu Jacomy</text>
<!-- Vertex:    90 -->
<ellipse cx="522.32" cy="204.94" rx="3.60" ry="3.60" style="fill:rgb(140,35,255);stroke:rgb(0,0,0);stroke-width:0.50;"/>
<text x="525.16" y="215.57" style="font-family:MS Sans Serif;font-size:15px;fill:rgb(0,0,0)">Master architecture de l&#39;information</text>
<!-- Vertex:    91 -->
<ellipse cx="529.57" cy="537.33" rx="3.60" ry="3.60" style="fill:rgb(255,99,33);stroke:rgb(0,0,0);stroke-width:0.50;"/>
<text x="532.42" y="547.95" style="font-family:MS Sans Serif;font-size:15px;fill:rgb(0,0,0)">Amirouche Boubekki</text>
<!-- Vertex:    92 -->
<ellipse cx="125.97" cy="538.23" rx="5.09" ry="5.09" style="fill:rgb(0,255,255);stroke:rgb(0,0,0);stroke-width:0.50;"/>
<text x="128.82" y="548.86" style="font-family:MS Sans Serif;font-size:15px;fill:rgb(0,0,0)">Vanessa Juloux</text>
<!-- Vertex:    93 -->
<ellipse cx="406.73" cy="350.92" rx="3.60" ry="3.60" style="fill:rgb(255,10,155);stroke:rgb(0,0,0);stroke-width:0.50;"/>
<text x="409.58" y="361.55" style="font-family:MS Sans Serif;font-size:15px;fill:rgb(0,0,0)">Isabelle Breuil</text>
<!-- Vertex:    94 -->
<ellipse cx="230.56" cy="187.53" rx="3.60" ry="3.60" style="fill:rgb(0,255,255);stroke:rgb(0,0,0);stroke-width:0.50;"/>
<text x="233.41" y="198.15" style="font-family:MS Sans Serif;font-size:15px;fill:rgb(0,0,0)">Josquin Debaz</text>
<!-- Vertex:    95 -->
<ellipse cx="543.30" cy="244.63" rx="3.60" ry="3.60" style="fill:rgb(173,0,0);stroke:rgb(0,0,0);stroke-width:0.50;"/>
<text x="546.14" y="255.25" style="font-family:MS Sans Serif;font-size:15px;fill:rgb(0,0,0)">Solène Roulet</text>
<!-- Vertex:    96 -->
<ellipse cx="533.25" cy="347.42" rx="5.09" ry="5.09" style="fill:rgb(204,255,178);stroke:rgb(0,0,0);stroke-width:0.50;"/>
<text x="536.10" y="358.05" style="font-family:MS Sans Serif;font-size:15px;fill:rgb(0,0,0)">Sophie Pène</text>
<!-- Vertex:    97 -->
<ellipse cx="898.94" cy="567.05" rx="3.60" ry="3.60" style="fill:rgb(255,255,255);stroke:rgb(0,0,0);stroke-width:0.50;"/>
<text x="901.79" y="577.67" style="font-family:MS Sans Serif;font-size:15px;fill:rgb(0,0,0)">Benjamin Ooghe</text>
<!-- Vertex:    98 -->
<ellipse cx="798.93" cy="538.72" rx="3.60" ry="3.60" style="fill:rgb(255,255,255);stroke:rgb(0,0,0);stroke-width:0.50;"/>
<text x="801.77" y="549.35" style="font-family:MS Sans Serif;font-size:15px;fill:rgb(0,0,0)">Anne L&#39;Hôte</text>
<!-- Vertex:    99 -->
<ellipse cx="282.33" cy="268.45" rx="3.60" ry="3.60" style="fill:rgb(0,0,255);stroke:rgb(0,0,0);stroke-width:0.50;"/>
<text x="285.18" y="279.07" style="font-family:MS Sans Serif;font-size:15px;fill:rgb(0,0,0)">Fatiha Idmhand</text>
<!-- Vertex:   100 -->
<ellipse cx="345.21" cy="233.34" rx="3.60" ry="3.60" style="fill:rgb(127,255,0);stroke:rgb(0,0,0);stroke-width:0.50;"/>
<text x="348.06" y="243.97" style="font-family:MS Sans Serif;font-size:15px;fill:rgb(0,0,0)">Sofia Papastamkou</text>
<!-- Vertex:   101 -->
<ellipse cx="503.13" cy="455.56" rx="5.09" ry="5.09" style="fill:rgb(0,0,255);stroke:rgb(0,0,0);stroke-width:0.50;"/>
<text x="505.98" y="466.19" style="font-family:MS Sans Serif;font-size:15px;fill:rgb(0,0,0)">Clarisse Bardiot</text>
<!-- Vertex:   102 -->
<ellipse cx="289.79" cy="429.52" rx="3.60" ry="3.60" style="fill:rgb(0,0,255);stroke:rgb(0,0,0);stroke-width:0.50;"/>
<text x="292.64" y="440.15" style="font-family:MS Sans Serif;font-size:15px;fill:rgb(0,0,0)">Stéphane Vial</text>
<!-- Vertex:   103 -->
<ellipse cx="385.85" cy="470.70" rx="5.09" ry="5.09" style="fill:rgb(89,89,89);stroke:rgb(0,0,0);stroke-width:0.50;"/>
<text x="388.70" y="481.33" style="font-family:MS Sans Serif;font-size:15px;fill:rgb(0,0,0)">Yves Rinato</text>
<!-- Vertex:   104 -->
<ellipse cx="1303.96" cy="533.25" rx="3.60" ry="3.60" style="fill:rgb(0,255,255);stroke:rgb(0,0,0);stroke-width:0.50;"/>
<text x="1306.80" y="543.87" style="font-family:MS Sans Serif;font-size:15px;fill:rgb(0,0,0)">Natalia Calderón Beltrán</text>
<!-- Vertex:   105 -->
<ellipse cx="1048.31" cy="329.06" rx="3.60" ry="3.60" style="fill:rgb(0,255,255);stroke:rgb(0,0,0);stroke-width:0.50;"/>
<text x="1051.15" y="339.69" style="font-family:MS Sans Serif;font-size:15px;fill:rgb(0,0,0)">Thibault Clerice</text>
<!-- Vertex:   106 -->
<ellipse cx="792.17" cy="655.96" rx="3.60" ry="3.60" style="fill:rgb(127,255,0);stroke:rgb(0,0,0);stroke-width:0.50;"/>
<text x="795.02" y="666.59" style="font-family:MS Sans Serif;font-size:15px;fill:rgb(0,0,0)">Silva Antonio</text>
<!-- Vertex:   107 -->
<ellipse cx="694.53" cy="590.15" rx="3.60" ry="3.60" style="fill:rgb(127,255,0);stroke:rgb(0,0,0);stroke-width:0.50;"/>
<text x="697.38" y="600.77" style="font-family:MS Sans Serif;font-size:15px;fill:rgb(0,0,0)">Juliette Hueber</text>
<!-- Vertex:   108 -->
<ellipse cx="143.21" cy="523.84" rx="3.60" ry="3.60" style="fill:rgb(0,255,255);stroke:rgb(0,0,0);stroke-width:0.50;"/>
<text x="146.06" y="534.47" style="font-family:MS Sans Serif;font-size:15px;fill:rgb(0,0,0)">Laurent Tessier</text>
</g>         <!-- Layer Network -->
</svg>
